HIERARCHY
ROOT Hips
{
    OFFSET   0.000000   0.000000   0.000000
    CHANNELS 6 Xposition Yposition Zposition Zrotation Xrotation Yrotation
    JOINT Chest
    {
        OFFSET   0.000000   8.007230   0.000000
        CHANNELS 3 Zrotation Xrotation Yrotation
        JOINT Chest2
        {
            OFFSET   0.000000  22.077100   0.000000
            CHANNELS 3 Zrotation Xrotation Yrotation
            JOINT Neck
            {
                OFFSET   0.000000  23.254800  -0.000021
                CHANNELS 3 Zrotation Xrotation Yrotation
                JOINT Head
                {
                    OFFSET   0.000000  14.370000   1.956610
                    CHANNELS 3 Zrotation Xrotation Yrotation
                    End Site
                    {
                        OFFSET   0.000000  19.566000   0.000000
                    }
                }
            }
            JOINT LeftCollar
            {
                OFFSET   3.911900  19.017000  -0.467063
                CHANNELS 3 Zrotation Xrotation Yrotation
                JOINT LeftShoulder
                {
                    OFFSET  10.383700   0.000000   0.000000
                    CHANNELS 3 Zrotation Xrotation Yrotation
                    JOINT LeftElbow
                    {
                        OFFSET  26.662100   0.001529   0.000325
                        CHANNELS 3 Zrotation Xrotation Yrotation
                        JOINT LeftWrist
                        {
                            OFFSET  28.869000  -0.000011  -0.000096
                            CHANNELS 3 Zrotation Xrotation Yrotation
                            JOINT LeftFinger0
                            {
                                OFFSET   2.044650  -2.323460   3.252850
                                CHANNELS 3 Zrotation Xrotation Yrotation
                                JOINT LeftFinger01
                                {
                                    OFFSET   3.088130   0.000000   0.000000
                                    CHANNELS 3 Zrotation Xrotation Yrotation
                                    JOINT LeftFinger02
                                    {
                                        OFFSET   2.639460   0.000000   0.000000
                                        CHANNELS 3 Zrotation Xrotation Yrotation
                                        End Site
                                        {
                                            OFFSET   2.582190   0.000000   0.000000
                                        }
                                    }
                                }
                            }
                            JOINT LeftFinger1
                            {
                                OFFSET   8.364480   0.000000   3.252850
                                CHANNELS 3 Zrotation Xrotation Yrotation
                                JOINT LeftFinger11
                                {
                                    OFFSET   4.646930   0.000000   0.000000
                                    CHANNELS 3 Zrotation Xrotation Yrotation
                                    JOINT LeftFinger12
                                    {
                                        OFFSET   2.323460   0.000000   0.000000
                                        CHANNELS 3 Zrotation Xrotation Yrotation
                                        End Site
                                        {
                                            OFFSET   2.273050   0.000000   0.000000
                                        }
                                    }
                                }
                            }
                            JOINT LeftFinger2
                            {
                                OFFSET   8.364480   0.000016   1.078090
                                CHANNELS 3 Zrotation Xrotation Yrotation
                                JOINT LeftFinger21
                                {
                                    OFFSET   5.111620   0.000000   0.000000
                                    CHANNELS 3 Zrotation Xrotation Yrotation
                                    JOINT LeftFinger22
                                    {
                                        OFFSET   2.788160   0.000017   0.000000
                                        CHANNELS 3 Zrotation Xrotation Yrotation
                                        End Site
                                        {
                                            OFFSET   2.727660   0.000000   0.000000
                                        }
                                    }
                                }
                            }
                            JOINT LeftFinger3
                            {
                                OFFSET   7.899780   0.000015  -1.078090
                                CHANNELS 3 Zrotation Xrotation Yrotation
                                JOINT LeftFinger31
                                {
                                    OFFSET   4.646920   0.000000   0.000000
                                    CHANNELS 3 Zrotation Xrotation Yrotation
                                    JOINT LeftFinger32
                                    {
                                        OFFSET   2.323470   0.000000   0.000000
                                        CHANNELS 3 Zrotation Xrotation Yrotation
                                        End Site
                                        {
                                            OFFSET   2.273050   0.000000   0.000000
                                        }
                                    }
                                }
                            }
                            JOINT LeftFinger4
                            {
                                OFFSET   7.435090   0.000000  -3.252850
                                CHANNELS 3 Zrotation Xrotation Yrotation
                                JOINT LeftFinger41
                                {
                                    OFFSET   3.717550   0.000000   0.000000
                                    CHANNELS 3 Zrotation Xrotation Yrotation
                                    JOINT LeftFinger42
                                    {
                                        OFFSET   1.858760   0.000000   0.000000
                                        CHANNELS 3 Zrotation Xrotation Yrotation
                                        End Site
                                        {
                                            OFFSET   1.818440   0.000000   0.000000
                                        }
                                    }
                                }
                            }
                        }
                    }
                }
            }
            JOINT RightCollar
            {
                OFFSET  -3.911900  19.017000  -0.467062
                CHANNELS 3 Zrotation Xrotation Yrotation
                JOINT RightShoulder
                {
                    OFFSET -10.383700   0.000015   0.000000
                    CHANNELS 3 Zrotation Xrotation Yrotation
                    JOINT RightElbow
                    {
                        OFFSET -26.662100   0.001341   0.000385
                        CHANNELS 3 Zrotation Xrotation Yrotation
                        JOINT RightWrist
                        {
                            OFFSET -28.869000   0.000025  -0.000080
                            CHANNELS 3 Zrotation Xrotation Yrotation
                            JOINT RightFinger0
                            {
                                OFFSET  -2.044650  -2.323490   3.252850
                                CHANNELS 3 Zrotation Xrotation Yrotation
                                JOINT RightFinger01
                                {
                                    OFFSET  -3.088130   0.000000   0.000000
                                    CHANNELS 3 Zrotation Xrotation Yrotation
                                    JOINT RightFinger02
                                    {
                                        OFFSET  -2.639460   0.000000   0.000000
                                        CHANNELS 3 Zrotation Xrotation Yrotation
                                        End Site
                                        {
                                            OFFSET  -2.582190   0.000000   0.000000
                                        }
                                    }
                                }
                            }
                            JOINT RightFinger1
                            {
                                OFFSET  -8.364480   0.000000   3.252850
                                CHANNELS 3 Zrotation Xrotation Yrotation
                                JOINT RightFinger11
                                {
                                    OFFSET  -4.646930   0.000000   0.000000
                                    CHANNELS 3 Zrotation Xrotation Yrotation
                                    JOINT RightFinger12
                                    {
                                        OFFSET  -2.323470   0.000000   0.000000
                                        CHANNELS 3 Zrotation Xrotation Yrotation
                                        End Site
                                        {
                                            OFFSET  -2.273050   0.000000   0.000000
                                        }
                                    }
                                }
                            }
                            JOINT RightFinger2
                            {
                                OFFSET  -8.364480   0.000000   1.078090
                                CHANNELS 3 Zrotation Xrotation Yrotation
                                JOINT RightFinger21
                                {
                                    OFFSET  -5.111610   0.000000   0.000000
                                    CHANNELS 3 Zrotation Xrotation Yrotation
                                    JOINT RightFinger22
                                    {
                                        OFFSET  -2.788160   0.000000   0.000000
                                        CHANNELS 3 Zrotation Xrotation Yrotation
                                        End Site
                                        {
                                            OFFSET  -2.727660   0.000000   0.000000
                                        }
                                    }
                                }
                            }
                            JOINT RightFinger3
                            {
                                OFFSET  -7.899780   0.000000  -1.078090
                                CHANNELS 3 Zrotation Xrotation Yrotation
                                JOINT RightFinger31
                                {
                                    OFFSET  -4.646920   0.000000   0.000000
                                    CHANNELS 3 Zrotation Xrotation Yrotation
                                    JOINT RightFinger32
                                    {
                                        OFFSET  -2.323470   0.000000   0.000000
                                        CHANNELS 3 Zrotation Xrotation Yrotation
                                        End Site
                                        {
                                            OFFSET  -2.273050   0.000000   0.000000
                                        }
                                    }
                                }
                            }
                            JOINT RightFinger4
                            {
                                OFFSET  -7.435090   0.000000  -3.252850
                                CHANNELS 3 Zrotation Xrotation Yrotation
                                JOINT RightFinger41
                                {
                                    OFFSET  -3.717550   0.000000   0.000000
                                    CHANNELS 3 Zrotation Xrotation Yrotation
                                    JOINT RightFinger42
                                    {
                                        OFFSET  -1.858770   0.000000   0.000000
                                        CHANNELS 3 Zrotation Xrotation Yrotation
                                        End Site
                                        {
                                            OFFSET  -1.818440   0.000000   0.000000
                                        }
                                    }
                                }
                            }
                        }
                    }
                }
            }
        }
    }
    JOINT LeftHip
    {
        OFFSET   9.783010   0.000000   0.000000
        CHANNELS 3 Zrotation Xrotation Yrotation
        JOINT LeftKnee
        {
            OFFSET   0.000070 -41.789100   0.000028
            CHANNELS 3 Zrotation Xrotation Yrotation
            JOINT LeftAnkle
            {
                OFFSET   0.000087 -41.133200  -0.000100
                CHANNELS 3 Zrotation Xrotation Yrotation
                JOINT LeftToe
                {
                    OFFSET   0.000000  -6.358960  14.674500
                    CHANNELS 3 Zrotation Xrotation Yrotation
                    End Site
                    {
                        OFFSET   0.000000   0.000000   3.913200
                    }
                }
            }
        }
    }
    JOINT RightHip
    {
        OFFSET  -9.783020   0.000000   0.000000
        CHANNELS 3 Zrotation Xrotation Yrotation
        JOINT RightKnee
        {
            OFFSET   0.000044 -41.789100  -0.000870
            CHANNELS 3 Zrotation Xrotation Yrotation
            JOINT RightAnkle
            {
                OFFSET  -0.000090 -41.133200  -0.000245
                CHANNELS 3 Zrotation Xrotation Yrotation
                JOINT RightToe
                {
                    OFFSET   0.000000  -6.358960  14.674500
                    CHANNELS 3 Zrotation Xrotation Yrotation
                    End Site
                    {
                        OFFSET   0.000000   0.000000   3.913200
                    }
                }
            }
        }
    }
}
MOTION
Frames: 6
Frame Time:   0.016667
 -0.014117  89.542000  -2.978010  -0.699371  -3.557200  -0.853478   0.662167   3.025460  -0.464240   1.351730   6.045260  -0.965542  -1.506380   1.046680   0.024463  -2.479630   2.118510   4.629010  -5.391450   2.543520   8.329960 -77.207400   5.584020   1.132520   1.485540   9.396430 -19.049600   7.655910  -5.453860  -0.631756  41.486000  34.260700 -55.015000 -30.778400   0.001344   0.000911 -10.389200   0.000000   0.008499 -34.018500  -1.262940   1.866880 -27.856500   0.003593   0.000412 -19.499500  -0.009950   0.001154 -29.809000  -3.752330   6.502370 -45.034500  -0.012341   0.002285 -29.993000  -0.000447   0.003218 -28.126000  -4.039340   7.515870 -34.987600   0.004731   0.001877 -23.299200  -0.000084   0.002641 -31.978800  -4.545830   7.234500 -48.399500   0.005535   0.003466 -32.234100  -0.002206   0.003927   9.537770   5.334550   7.002540  66.368600  -0.640760  -3.622040   2.558250   0.326033  20.828800 -16.366500  -5.124670   2.404070 -46.709400  42.529200  81.701300  27.475600   0.004334  -0.011326   8.745580   0.004135  -0.006071  46.983300  -0.748698  -0.698537  38.436600  -0.003863   0.000137  28.337900   0.000337   0.000122  40.332400  -1.796850  -2.114990  54.345000   0.000158  -0.007658  37.398800   0.011190   0.013684  50.389100  -2.138610  -1.768610  54.267200   0.003633  -0.001122  39.864800   0.006583   0.010023  54.657900  -6.442630  -4.562800  82.373400   0.001619   0.002828  54.860600   0.002173   0.001126   1.672270   5.265780  -0.383728  -0.106673   0.563173  11.318500  -2.184450  -2.600520  -3.141580  -0.000000   0.000000  -0.000000   0.015544   3.950370  -2.002110  -0.075962   3.740130 -15.458000   1.084650  -3.958230  -2.375550   0.000000   0.000000   0.000000
 -0.004324  89.541900  -2.971170  -0.707078  -3.559590  -0.888454   0.662121   3.029710  -0.461406   1.351530   6.053780  -0.959917  -1.506410   1.063520   0.024479  -2.480300   2.152130   4.596390  -5.391260   2.536310   8.340020 -77.194300   5.605060   1.121300   1.492520   9.450750 -18.988900   7.656170  -5.390240  -0.631759  41.494000  34.313800 -55.066700 -30.818300   0.001350   0.000891 -10.409200   0.000000   0.008501 -34.024200  -1.262970   1.866920 -27.856200  -0.003614  -0.006277 -19.499300  -0.010217  -0.005104 -29.803500  -3.752330   6.502370 -45.026200  -0.012896  -0.002590 -29.987500  -0.000489  -0.004346 -28.126000  -4.039340   7.516000 -34.994500  -0.005459  -0.011122 -23.298900  -0.000091  -0.008377 -31.970000  -4.539860   7.228210 -48.385400  -0.007013  -0.016525 -32.224700  -0.002282  -0.011922   9.553430   5.297870   7.022340  66.390900  -0.586690  -3.624550   2.544060   0.327236  20.844500 -16.366300  -5.121070   2.417660 -46.694400  42.513400  81.693300  27.473400   0.004304  -0.011315   8.742360   0.004148  -0.006080  46.978300  -0.742728  -0.693115  38.436600  -0.003848   0.000087  28.337900   0.000312   0.000081  40.345000  -1.791580  -2.107880  54.344900   0.000174  -0.007674  37.398800   0.011177   0.013686  50.443500  -2.133510  -1.760850  54.265200   0.003610  -0.001149  39.875300   0.006572   0.010048  54.682400  -6.453070  -4.562910  82.410600   0.001589   0.002791  54.885400   0.002141   0.001137   1.672950   5.277290  -0.383786  -0.110925   0.563104  11.330700  -2.173480  -2.612020  -3.119100   0.000000   0.000000   0.000000   0.016052   3.954090  -2.002150  -0.077691   3.740340 -15.449000   1.091720  -3.958420  -2.342390  -0.000000   0.000000  -0.000000
  0.011778  89.541900  -2.960590  -0.719758  -3.567070  -0.947789   0.662044   3.042530  -0.456116   1.351230   6.079490  -0.949480  -1.506440   1.089220   0.024523  -2.480890   2.203700   4.525960  -5.391730   2.516730   8.350000 -77.171200   5.651750   1.099920   1.492520   9.507410 -18.886600   7.656770  -5.294330  -0.631730  41.501900  34.367100 -55.118100 -30.858300   0.001356   0.000859 -10.429200   0.000000   0.008506 -34.030000  -1.263040   1.866980 -27.855900  -0.011585  -0.012966 -19.499100  -0.010483  -0.011362 -29.793900  -3.752330   6.502370 -45.011600  -0.013451  -0.008285 -29.977700  -0.000560  -0.012336 -28.125900  -4.039340   7.516190 -35.001400  -0.016651  -0.024121 -23.298400  -0.000103  -0.019470 -31.953800  -4.533410   7.221920 -48.360000  -0.020890  -0.036516 -32.207800  -0.002409  -0.027982   9.582540   5.211400   7.041560  66.424500  -0.485425  -3.642310   2.526660   0.335722  20.923800 -16.369500  -5.096530   2.464080 -46.679300  42.497700  81.685300  27.457800   0.004241  -0.011280   8.728930   0.004173  -0.006108  46.973900  -0.710457  -0.663056  38.436600  -0.003810  -0.000000  28.337900   0.000244   0.000000  40.359000  -1.767210  -2.078480  54.344800   0.000213  -0.007711  37.398800   0.011147   0.013689  50.540700  -2.107150  -1.732760  54.261100   0.003553  -0.001193  39.894000   0.006548   0.010099  54.720000  -6.469080  -4.563070  82.467600   0.001523   0.002709  54.923400   0.002071   0.001163   1.673910   5.301460  -0.383852  -0.118472   0.562748  11.351100  -2.154740  -2.629420  -3.082830  -0.000000   0.000000   0.000000   0.016982   3.962240  -2.002210  -0.082030   3.740900 -15.433300   1.104830  -3.958790  -2.290360  -0.000000   0.000000   0.000000
  0.024190  89.541800  -2.953850  -0.728802  -3.579680  -0.995530   0.661999   3.064280  -0.451543   1.351100   6.123030  -0.940586  -1.506330   1.104420   0.024594  -2.480560   2.234930   4.443050  -5.394200   2.485000   8.340750 -77.144600   5.717120   1.078000   1.478600   9.508870 -18.803600   7.659230  -5.228840  -0.631521  41.475100  34.308000 -55.048400 -30.853000   0.001350   0.000830 -10.426500   0.000000   0.008511 -34.027700  -1.263130   1.867060 -27.855700  -0.012476  -0.012900 -19.499000  -0.008623  -0.011350 -29.784200  -3.752340   6.502820 -44.996900  -0.010503  -0.009241 -29.968000  -0.000630  -0.012833 -28.125900  -4.039110   7.516260 -34.995000  -0.017818  -0.024051 -23.298200  -0.000115  -0.019556 -31.936500  -4.533000   7.226910 -48.334400  -0.022442  -0.036438 -32.190800  -0.002536  -0.028228   9.612750   5.090320   7.036780  66.446000  -0.375892  -3.682240   2.530230   0.372652  21.072600 -16.384100  -5.036010   2.537810 -46.740400  42.544700  81.854100  27.410900   0.004158  -0.011210   8.703690   0.004198  -0.006160  46.980400  -0.639394  -0.596328  38.441000  -0.003752  -0.000077  28.342200   0.000141  -0.000093  40.336400  -1.717200  -2.021030  54.344800   0.000269  -0.007762  37.391600   0.011107   0.013692  50.600200  -2.050860  -1.681420  54.258200   0.003468  -0.001239  39.905700   0.006515   0.010169  54.737400  -6.476510  -4.562980  82.494000   0.001432   0.002591  54.941000   0.001973   0.001200   1.673760   5.331450  -0.378534  -0.123742   0.552394  11.366700  -2.138610  -2.638010  -3.056690   0.000000   0.000000   0.000000   0.017368   3.972970  -1.998440  -0.086635   3.745720 -15.420700   1.118440  -3.959040  -2.256710   0.000000   0.000000  -0.000000
  0.036358  89.541700  -2.948100  -0.739182  -3.597880  -1.048360   0.661917   3.094090  -0.444597   1.350850   6.182720  -0.927051  -1.505520   1.117540   0.024672  -2.478480   2.262090   4.326480  -5.397200   2.444590   8.313520 -77.127000   5.789180   1.051250   1.466070   9.498840 -18.721800   7.666820  -5.195630  -0.630486  41.430700  34.238100 -54.969200 -30.847700   0.001344   0.000813 -10.423900   0.000000   0.008518 -34.025400  -1.263210   1.867110 -27.855700  -0.012603  -0.012441 -19.498900  -0.005164  -0.011266 -29.775600  -3.752340   6.503610 -44.983900  -0.005738  -0.009378 -29.959300  -0.000672  -0.012904 -28.125800  -4.038710   7.516290 -34.988500  -0.017985  -0.023559 -23.298100  -0.000123  -0.019569 -31.920100  -4.532670   7.231900 -48.309900  -0.022664  -0.035890 -32.174400  -0.002611  -0.028263   9.643760   4.935980   7.011030  66.459300  -0.263219  -3.752070   2.572890   0.453907  21.338500 -16.408000  -4.957180   2.666720 -46.778900  42.591200  82.023400  27.327800   0.004062  -0.011132   8.663890   0.004230  -0.006226  47.008400  -0.538280  -0.501453  38.463300  -0.003683  -0.000159  28.363900   0.000000  -0.000194  40.315200  -1.644130  -1.936680  54.344700   0.000336  -0.007824  37.384400   0.011058   0.013695  50.731500  -1.968470  -1.606040  54.250300   0.003371  -0.001267  39.930600   0.006479   0.010237  54.762700  -6.487250  -4.562930  82.532300   0.001335   0.002466  54.966500   0.001868   0.001243   1.673140   5.367150  -0.367860  -0.129292   0.542307  11.384700  -2.122420  -2.647660  -3.031180   0.000000   0.000000   0.000000   0.018133   3.985930  -1.990790  -0.092708   3.757970 -15.405400   1.132910  -3.959700  -2.224510  -0.000000   0.000000   0.000000
  0.048673  89.541700  -2.943280  -0.753477  -3.621730  -1.111470   0.662015   3.131140  -0.432823   1.350770   6.256970  -0.903945  -1.499000   1.133810   0.024750  -2.469450   2.295170   4.170110  -5.400470   2.399920   8.267050 -77.125200   5.849210   1.019120   1.459880   9.474540 -18.642900   7.683140  -5.199790  -0.625349  41.412100  34.219700 -54.966700 -30.849900   0.001351   0.000844 -10.425000   0.000000   0.008530 -34.026700  -1.263240   1.867110 -27.856700  -0.004603  -0.004235 -19.499700  -0.001206  -0.004006 -29.770700  -3.752340   6.504330 -44.976500  -0.001818  -0.004082 -29.954400  -0.000644  -0.005215 -28.125800  -4.038380   7.515130 -34.989800  -0.006949  -0.007996 -23.299500  -0.000118  -0.007051 -31.906300  -4.531610   7.231610 -48.289300  -0.009631  -0.012295 -32.160700  -0.002561  -0.010539   9.673730   4.752740   6.951310  66.437400  -0.163016  -3.855300   2.665370   0.596601  21.755300 -16.433100  -4.850430   2.904200 -46.756600  42.540100  82.034100  27.214100   0.003963  -0.011068   8.607030   0.004275  -0.006295  47.078800  -0.400036  -0.372019  38.520500  -0.003612  -0.000258  28.419700  -0.000192  -0.000300  40.323000  -1.534870  -1.810550  54.345100   0.000408  -0.007892  37.384900   0.011005   0.013698  51.006200  -1.844990  -1.493670  54.240800   0.003274  -0.001249  39.986800   0.006443   0.010288  54.810700  -6.507680  -4.568000  82.605800   0.001246   0.002349  55.015400   0.001770   0.001284   1.673830   5.403140  -0.354142  -0.135483   0.543444  11.406800  -2.107490  -2.665390  -3.005010   0.000000   0.000000   0.000000   0.021746   3.998620  -1.979080  -0.102029   3.778460 -15.385400   1.147170  -3.962510  -2.189760   0.000000   0.000000   0.000000
